<svg width="24" height="24" viewBox="0 0 24 24" fill="none" xmlns="http://www.w3.org/2000/svg">
<path fill-rule="evenodd" clip-rule="evenodd" d="M11 19C11 18.4477 11.4477 18 12 18H19C19.5523 18 20 18.4477 20 19C20 19.5523 19.5523 20 19 20H12C11.4477 20 11 19.5523 11 19Z" fill="white"/>
<path fill-rule="evenodd" clip-rule="evenodd" d="M16.6667 6C16.5109 6 16.3508 6.06459 16.2246 6.19725L6.68827 16.223L6.3587 17.6089L7.58228 17.2873L17.1088 7.27193C17.1717 7.20581 17.2241 7.12463 17.2606 7.03182C17.2972 6.93895 17.3166 6.83781 17.3166 6.73459C17.3166 6.63137 17.2972 6.53023 17.2606 6.43736C17.2241 6.34455 17.1717 6.26337 17.1088 6.19725C17.046 6.13123 16.9742 6.08169 16.8988 6.04888C16.8236 6.01612 16.7449 6 16.6667 6ZM14.7755 4.81885C15.2681 4.30091 15.9473 4 16.6667 4C17.0218 4 17.3722 4.07361 17.6973 4.2152C18.0223 4.35673 18.3143 4.56272 18.5579 4.81885C18.8015 5.07487 18.9921 5.37613 19.1214 5.70422C19.2506 6.03225 19.3166 6.38223 19.3166 6.73459C19.3166 7.08695 19.2506 7.43693 19.1214 7.76496C18.9921 8.09305 18.8015 8.39431 18.5579 8.65033L8.8357 18.8715C8.70775 19.006 8.54488 19.1023 8.36533 19.1494L5.25422 19.9671C4.9144 20.0565 4.55265 19.9609 4.30129 19.7154C4.04994 19.4699 3.94587 19.1105 4.02715 18.7686L4.80493 15.4979C4.8458 15.326 4.93147 15.168 5.05323 15.04L14.7755 4.81885Z" fill="white"/>
</svg>
