<svg width="24" height="24" viewBox="0 0 24 24" fill="none" xmlns="http://www.w3.org/2000/svg">
<g id="Component/Icon/Edit">
<path id="Vector" d="M9.24264 18.9964H20.5C20.7761 18.9964 21 19.2203 21 19.4964V20.4964C21 20.7725 20.7761 20.9964 20.5 20.9964H5C3.89543 20.9964 3 20.101 3 18.9964V17.5822C3 17.0518 3.21071 16.5431 3.58579 16.168L12.5459 7.20786C12.7412 7.0126 13.0578 7.0126 13.2531 7.20786L16.7885 10.7433C16.9838 10.9386 16.9838 11.2552 16.7885 11.4505L9.24264 18.9964ZM14.6672 5.79364C14.472 5.59838 14.472 5.2818 14.6672 5.08654L16.435 3.31877C16.8256 2.92825 17.4587 2.92825 17.8492 3.31877L20.6777 6.1472C21.0682 6.53772 21.0682 7.17089 20.6777 7.56141L18.9099 9.32919C18.7146 9.52444 18.398 9.52444 18.2028 9.32918L14.6672 5.79364Z" fill="black"/>
</g>
</svg>
