<svg width="26" height="25" viewBox="0 0 26 25" fill="none" xmlns="http://www.w3.org/2000/svg">
<circle cx="11" cy="10.5" r="10" fill="#FA7B53" fill-opacity="0.89"/>
<path d="M12.4496 11.4173C12.2477 11.7056 11.8192 11.7007 11.624 11.4079L11.3792 11.0407C11.1813 10.7439 10.7451 10.7439 10.5472 11.0407L9.39812 12.7644C9.1766 13.0966 9.41479 13.5417 9.81414 13.5417H17.2946C17.6991 13.5417 17.9361 13.0864 17.7042 12.755L15.0186 8.91845C14.8196 8.63411 14.3985 8.63408 14.1994 8.91838L12.4496 11.4173Z" fill="#212121"/>
<path d="M10.4455 9.37502C11.3102 9.37502 12.0111 8.67407 12.0111 7.8094C12.0111 6.94473 11.3102 6.24377 10.4455 6.24377C9.58084 6.24377 8.87988 6.94473 8.87988 7.8094C8.87988 8.67407 9.58084 9.37502 10.4455 9.37502Z" fill="#212121"/>
<path d="M20.3383 2.08337H6.79663C5.54038 2.08337 3.67163 2.91567 3.67163 5.20837V19.7917C3.67163 22.0844 5.54038 22.9167 6.79663 22.9167H21.4216C21.9739 22.9167 22.4216 22.469 22.4216 21.9167V21.8334C22.4216 21.2811 21.9739 20.8334 21.4216 20.8334H6.80913C6.32788 20.8209 5.75496 20.6313 5.75496 19.7917C5.75496 18.9521 6.32788 18.7625 6.80913 18.75H21.4216C21.9739 18.75 22.4216 18.3023 22.4216 17.75V4.16671C22.4216 3.01775 21.4873 2.08337 20.3383 2.08337ZM20.3383 15.6667C20.3383 16.219 19.8906 16.6667 19.3383 16.6667H6.75496C6.20268 16.6667 5.75496 16.219 5.75496 15.6667V5.20837C5.75496 4.36879 6.32788 4.17921 6.79663 4.16671H19.3383C19.8906 4.16671 20.3383 4.61442 20.3383 5.16671V15.6667Z" fill="#212121"/>
</svg>
