<svg width="123" height="52" viewBox="0 0 123 52" fill="none" xmlns="http://www.w3.org/2000/svg">
<g id="&#236;&#152;&#164;&#236;&#155;&#148;&#236;&#157;&#180;">
<path d="M18.5 0.632034C30.9 0.598699 37.1 6.56536 37.1 18.532C37.0667 28.8987 32.0167 34.6154 21.95 35.682V42.432H35.15C36.45 42.432 37.1 43.1654 37.1 44.632V48.032C37.1 49.2654 36.4833 49.8987 35.25 49.932H2.3C0.8 49.932 0.0500002 49.1654 0.0500002 47.632V44.632C0.0500002 43.1654 0.85 42.432 2.45 42.432H14V35.582C4.7 34.182 0.0333334 28.4987 0 18.532C0.0333334 6.5987 6.2 0.632034 18.5 0.632034ZM18.45 29.082C25.5833 29.082 29.25 25.5654 29.45 18.532C29.45 11.0987 25.8 7.41537 18.5 7.48203C11.3667 7.48203 7.76667 11.1654 7.7 18.532C7.76667 25.6654 11.35 29.182 18.45 29.082Z" fill="black"/>
<path d="M44.7252 36.532C43.3919 36.532 42.7252 35.9654 42.7252 34.832V32.882C42.7252 31.5487 43.3419 30.882 44.5752 30.882H52.0252V28.482H44.7752C43.3419 28.482 42.6252 27.7654 42.6252 26.332V23.732C42.6252 22.2987 43.3252 21.582 44.7252 21.582H67.5252C68.7252 21.6154 69.3252 22.2654 69.3252 23.532V26.332C69.3252 27.7654 68.6752 28.482 67.3752 28.482H59.8752V30.882H77.4752C78.8752 30.882 79.5752 31.482 79.5752 32.682V41.532C79.5752 42.732 78.8586 43.332 77.4252 43.332H50.3252V45.332H77.5752C78.9086 45.332 79.5752 45.8987 79.5752 47.032V48.832C79.5752 50.2654 78.9586 50.982 77.7252 50.982H45.0252C43.4919 50.982 42.7252 50.3987 42.7252 49.232V40.332C42.7252 39.132 43.4419 38.532 44.8752 38.532H71.8752V36.532H44.7252ZM55.4252 0.582031C62.3919 0.582031 66.4919 2.91537 67.7252 7.58203H71.4752V2.88203C71.4752 1.71537 72.1252 1.13203 73.4252 1.13203H77.5752C78.9086 1.13203 79.5752 1.71537 79.5752 2.88203V27.532C79.5752 28.732 78.8919 29.332 77.5252 29.332H73.5252C72.1586 29.332 71.4752 28.6987 71.4752 27.432V15.082H67.2252C65.5919 18.5154 61.6419 20.232 55.3752 20.232C47.0752 20.1654 42.8586 16.9987 42.7252 10.732C42.7919 3.9987 47.0252 0.615366 55.4252 0.582031ZM55.5252 13.432C58.9586 13.432 60.6752 12.532 60.6752 10.732C60.6752 8.53203 58.9919 7.43203 55.6252 7.43203C52.2252 7.43203 50.5252 8.4987 50.5252 10.632C50.5252 12.532 52.1919 13.4654 55.5252 13.432Z" fill="black"/>
<path d="M122.111 49.232C122.111 50.432 121.511 51.032 120.311 51.032H116.011C114.778 51.032 114.161 50.382 114.161 49.082V2.88203C114.161 1.71537 114.778 1.13203 116.011 1.13203H120.161C121.461 1.13203 122.111 1.7487 122.111 2.98203V49.232ZM98.061 1.13203C100.661 1.13203 102.794 1.63203 104.461 2.63203C106.128 3.63203 107.444 5.1487 108.411 7.18203C109.378 9.18203 110.044 11.6987 110.411 14.732C110.778 17.732 110.961 21.2487 110.961 25.282C110.961 29.582 110.761 33.3487 110.361 36.582C109.961 39.782 109.278 42.4654 108.311 44.632C107.344 46.7654 106.028 48.3654 104.361 49.432C102.694 50.4987 100.594 51.032 98.061 51.032C95.461 51.032 93.311 50.482 91.611 49.382C89.911 48.3154 88.561 46.7154 87.561 44.582C86.5943 42.4154 85.911 39.732 85.511 36.532C85.111 33.2987 84.911 29.5487 84.911 25.282C84.911 21.282 85.1277 17.782 85.561 14.782C86.0277 11.7487 86.761 9.23203 87.761 7.23203C88.7943 5.1987 90.1443 3.68203 91.811 2.68203C93.511 1.6487 95.5943 1.13203 98.061 1.13203ZM103.461 25.282C103.461 22.4487 103.394 19.9654 103.261 17.832C103.128 15.6987 102.861 13.932 102.461 12.532C102.061 11.0987 101.511 10.032 100.811 9.33203C100.111 8.63203 99.211 8.28203 98.111 8.28203C96.9777 8.28203 96.061 8.63203 95.361 9.33203C94.661 10.032 94.111 11.0987 93.711 12.532C93.3443 13.932 93.0943 15.6987 92.961 17.832C92.8277 19.9654 92.761 22.4487 92.761 25.282C92.761 31.5154 93.1277 36.1987 93.861 39.332C94.5944 42.432 96.011 43.982 98.111 43.982C99.1777 43.982 100.061 43.5987 100.761 42.832C101.461 42.032 102.011 40.8487 102.411 39.282C102.811 37.7154 103.078 35.7654 103.211 33.432C103.378 31.0987 103.461 28.382 103.461 25.282Z" fill="black"/>
</g>
</svg>
