<svg width="22" height="22" viewBox="0 0 22 22" fill="none" xmlns="http://www.w3.org/2000/svg">
<circle cx="11" cy="11" r="10.25" fill="white" stroke="#C6C6C6" stroke-width="1.5"/>
<path d="M10.9941 15.1172C9.38867 15.1172 8.18164 14.1387 8.12305 12.7852H9.37695C9.44727 13.5059 10.1387 14.0332 10.9941 14.0391C12.0254 14.0332 12.7637 13.2891 12.7637 12.2812C12.7637 11.25 12.002 10.5 10.9355 10.4883C10.2559 10.4883 9.73438 10.7168 9.44727 11.2383H8.22852L8.7793 6.51562H13.584V7.61719H9.8457L9.56445 9.99609H9.64648C9.99805 9.65625 10.5957 9.42773 11.2402 9.42188C12.8398 9.42773 14.0176 10.6113 14.0176 12.2461C14.0176 13.916 12.7637 15.1172 10.9941 15.1172Z" fill="#C6C6C6"/>
</svg>
