<svg width="25" height="25" viewBox="0 0 25 25" fill="none" xmlns="http://www.w3.org/2000/svg">
<path d="M11.903 11.4173C11.7011 11.7056 11.2726 11.7007 11.0774 11.4079L10.8326 11.0407C10.6347 10.7439 10.1985 10.7439 10.0006 11.0407L8.85149 12.7644C8.62997 13.0966 8.86816 13.5417 9.26751 13.5417H16.7479C17.1524 13.5417 17.3895 13.0864 17.1575 12.755L14.472 8.91845C14.2729 8.63411 13.8519 8.63408 13.6528 8.91838L11.903 11.4173Z" fill="#C6C6C6"/>
<path d="M9.89888 9.37502C10.7635 9.37502 11.4645 8.67407 11.4645 7.8094C11.4645 6.94473 10.7635 6.24377 9.89888 6.24377C9.03421 6.24377 8.33325 6.94473 8.33325 7.8094C8.33325 8.67407 9.03421 9.37502 9.89888 9.37502Z" fill="#C6C6C6"/>
<path d="M19.7917 2.08337H6.25C4.99375 2.08337 3.125 2.91567 3.125 5.20837V19.7917C3.125 22.0844 4.99375 22.9167 6.25 22.9167H20.875C21.4273 22.9167 21.875 22.469 21.875 21.9167V21.8334C21.875 21.2811 21.4273 20.8334 20.875 20.8334H6.2625C5.78125 20.8209 5.20833 20.6313 5.20833 19.7917C5.20833 18.9521 5.78125 18.7625 6.2625 18.75H20.875C21.4273 18.75 21.875 18.3023 21.875 17.75V4.16671C21.875 3.01775 20.9406 2.08337 19.7917 2.08337ZM19.7917 15.6667C19.7917 16.219 19.344 16.6667 18.7917 16.6667H6.20833C5.65605 16.6667 5.20833 16.219 5.20833 15.6667V5.20837C5.20833 4.36879 5.78125 4.17921 6.25 4.16671H18.7917C19.344 4.16671 19.7917 4.61442 19.7917 5.16671V15.6667Z" fill="#C6C6C6"/>
</svg>
