<svg width="24" height="24" viewBox="0 0 24 24" fill="none" xmlns="http://www.w3.org/2000/svg">
<g id="Component/Icon/Close">
<path id="Vector" d="M7.01043 11.3033L7.36398 11.6569L7.71754 11.3033L12.9601 6.06066C13.1554 5.8654 13.472 5.8654 13.6672 6.06066C13.8625 6.25592 13.8625 6.5725 13.6672 6.76776L8.42462 12.0104L8.07107 12.364L8.42463 12.7175L13.6672 17.9601C13.8625 18.1554 13.8625 18.472 13.6672 18.6672C13.472 18.8625 13.1554 18.8625 12.9601 18.6672L7.71753 13.4246L7.36398 13.0711L7.01043 13.4246L1.76776 18.6672C1.5725 18.8625 1.25592 18.8625 1.06066 18.6672C0.865403 18.472 0.865403 18.1554 1.06067 17.9601L6.30333 12.7175L6.65689 12.364L6.30333 12.0104L1.06066 6.76776C0.865397 6.5725 0.865398 6.25592 1.06066 6.06066C1.25592 5.8654 1.5725 5.8654 1.76776 6.06066L7.01043 11.3033Z" fill="#212121" stroke="#212121"/>
</g>
</svg>
