<svg width="24" height="24" viewBox="0 0 24 24" fill="none" xmlns="http://www.w3.org/2000/svg">
<path fill-rule="evenodd" clip-rule="evenodd" d="M10.5 3C6.35786 3 3 6.35786 3 10.5C3 14.6421 6.35786 18 10.5 18C14.6421 18 18 14.6421 18 10.5C18 6.35786 14.6421 3 10.5 3ZM1 10.5C1 5.25329 5.25329 1 10.5 1C15.7467 1 20 5.25329 20 10.5C20 15.7467 15.7467 20 10.5 20C5.25329 20 1 15.7467 1 10.5Z" fill="black"/>
<path fill-rule="evenodd" clip-rule="evenodd" d="M16.3417 16.3417C16.7973 15.8861 17.536 15.8861 17.9916 16.3417L22.6583 21.0084C23.1139 21.464 23.1139 22.2027 22.6583 22.6583C22.2027 23.1139 21.464 23.1139 21.0084 22.6583L16.3417 17.9916C15.8861 17.536 15.8861 16.7973 16.3417 16.3417Z" fill="black"/>
</svg>
