<svg width="24" height="24" viewBox="0 0 24 24" fill="none" xmlns="http://www.w3.org/2000/svg">
<g clip-path="url(#clip0_257_4522)">
<path d="M14.001 4.52853C16.35 2.42 19.98 2.49 22.2426 4.75736C24.5053 7.02472 24.583 10.637 22.4786 12.993L14.7076 20.7762C14.3169 21.1675 13.6829 21.1675 13.2922 20.7762L5.52138 12.993C3.41705 10.637 3.49571 7.01901 5.75736 4.75736C8.02157 2.49315 11.6452 2.41687 14.001 4.52853ZM20.827 6.1701C19.3279 4.66794 16.9076 4.60701 15.337 6.01687L14.3357 6.91565C14.1458 7.08611 13.858 7.08621 13.6679 6.91587L12.6661 6.01781C11.091 4.60597 8.67506 4.66808 7.17157 6.17157C5.68183 7.66131 5.60704 10.0473 6.97993 11.6232L13.9999 18.6543L21.0201 11.6232C22.3935 10.0467 22.319 7.66525 20.827 6.1701Z" fill="#C6C6C6"/>
</g>
<defs>
<clipPath id="clip0_257_4522">
<rect width="24" height="24" fill="white"/>
</clipPath>
</defs>
</svg>
