<svg width="378" height="214" viewBox="0 0 378 214" fill="none" xmlns="http://www.w3.org/2000/svg">
<path d="M1.5 213C9.30294 179.595 37.2466 129.407 86.8733 129.407C136.5 129.407 172 150 206.5 129.407C241 108.815 265.009 104.795 303.5 107C341.991 109.205 379.254 15.281 338.862 3.26778C304.977 -6.81043 291.646 46.2153 322.797 55.826C347.718 63.5146 367.524 56.6937 376.5 42.8116" stroke="#E9E9E9" stroke-width="3" stroke-dasharray="7 7"/>
<g clip-path="url(#clip0_1212_12005)">
<mask id="path-3-inside-1_1212_12005" fill="white">
<path fill-rule="evenodd" clip-rule="evenodd" d="M89.5 62H239.51C239.772 68.6718 245.264 74 252 74C258.736 74 264.228 68.6718 264.49 62H289.5C306.069 62 319.5 75.4315 319.5 92V182C319.5 198.569 306.069 212 289.5 212H264.411C263.67 205.804 258.396 201 252 201C245.604 201 240.33 205.804 239.589 212H89.5C72.9315 212 59.5 198.569 59.5 182V92C59.5 75.4315 72.9315 62 89.5 62Z"/>
</mask>
<path fill-rule="evenodd" clip-rule="evenodd" d="M89.5 62H239.51C239.772 68.6718 245.264 74 252 74C258.736 74 264.228 68.6718 264.49 62H289.5C306.069 62 319.5 75.4315 319.5 92V182C319.5 198.569 306.069 212 289.5 212H264.411C263.67 205.804 258.396 201 252 201C245.604 201 240.33 205.804 239.589 212H89.5C72.9315 212 59.5 198.569 59.5 182V92C59.5 75.4315 72.9315 62 89.5 62Z" fill="white"/>
<path d="M239.51 62L242.507 61.8821L242.394 59H239.51V62ZM264.49 62V59H261.606L261.493 61.8821L264.49 62ZM264.411 212L261.432 212.356L261.748 215H264.411V212ZM239.589 212V215H242.252L242.568 212.356L239.589 212ZM239.51 59H89.5V65H239.51V59ZM252 71C246.881 71 242.707 66.9505 242.507 61.8821L236.512 62.1179C236.838 70.393 243.647 77 252 77V71ZM261.493 61.8821C261.293 66.9505 257.119 71 252 71V77C260.353 77 267.162 70.393 267.488 62.1179L261.493 61.8821ZM289.5 59H264.49V65H289.5V59ZM322.5 92C322.5 73.7746 307.725 59 289.5 59V65C304.412 65 316.5 77.0883 316.5 92H322.5ZM322.5 182V92H316.5V182H322.5ZM289.5 215C307.725 215 322.5 200.225 322.5 182H316.5C316.5 196.912 304.412 209 289.5 209V215ZM264.411 215H289.5V209H264.411V215ZM252 204C256.859 204 260.869 207.65 261.432 212.356L267.39 211.644C266.47 203.957 259.933 198 252 198V204ZM242.568 212.356C243.131 207.65 247.141 204 252 204V198C244.067 198 237.53 203.957 236.61 211.644L242.568 212.356ZM89.5 215H239.589V209H89.5V215ZM56.5 182C56.5 200.225 71.2746 215 89.5 215V209C74.5883 209 62.5 196.912 62.5 182H56.5ZM56.5 92V182H62.5V92H56.5ZM89.5 59C71.2746 59 56.5 73.7746 56.5 92H62.5C62.5 77.0883 74.5883 65 89.5 65V59Z" fill="#626262" mask="url(#path-3-inside-1_1212_12005)"/>
<circle opacity="0.2" cx="100" cy="148.173" r="78" stroke="#C6C6C6" stroke-width="10"/>
<circle opacity="0.2" cx="99.9111" cy="148.085" r="91.5" transform="rotate(-0.367485 99.9111 148.085)" stroke="#C6C6C6" stroke-width="10"/>
<g opacity="0.2">
<ellipse cx="93.4175" cy="112.658" rx="15.6392" ry="15.6764" fill="#E9E9E9"/>
<ellipse cx="15.6621" cy="15.6675" rx="15.6621" ry="15.6675" transform="matrix(0.500257 -0.865877 0.866174 0.499743 51 130.479)" fill="#E9E9E9"/>
<ellipse cx="15.6621" cy="15.6675" rx="15.6621" ry="15.6675" transform="matrix(0.500257 0.865877 -0.866174 0.499743 120.155 103.356)" fill="#E9E9E9"/>
<ellipse cx="93.4175" cy="161.078" rx="15.6392" ry="15.6764" fill="#E9E9E9"/>
<ellipse cx="15.6621" cy="15.6675" rx="15.6621" ry="15.6675" transform="matrix(0.500257 -0.865877 0.866174 0.499743 93.0137 154.72)" fill="#E9E9E9"/>
<ellipse cx="15.6621" cy="15.6675" rx="15.6621" ry="15.6675" transform="matrix(0.500257 0.865877 -0.866174 0.499743 78.1416 127.597)" fill="#E9E9E9"/>
<ellipse cx="99.5581" cy="112.658" rx="15.6392" ry="15.6764" fill="#FA7B53"/>
<ellipse cx="15.6621" cy="15.6675" rx="15.6621" ry="15.6675" transform="matrix(0.500257 -0.865877 0.866174 0.499743 57.1406 130.479)" fill="#FA7B53"/>
<ellipse cx="15.6621" cy="15.6675" rx="15.6621" ry="15.6675" transform="matrix(0.500257 0.865877 -0.866174 0.499743 126.296 103.356)" fill="#FA7B53"/>
<ellipse cx="99.5581" cy="161.078" rx="15.6392" ry="15.6764" fill="#FA7B53"/>
<ellipse cx="15.6621" cy="15.6675" rx="15.6621" ry="15.6675" transform="matrix(0.500257 -0.865877 0.866174 0.499743 99.1543 154.72)" fill="#FA7B53"/>
<ellipse cx="15.6621" cy="15.6675" rx="15.6621" ry="15.6675" transform="matrix(0.500257 0.865877 -0.866174 0.499743 84.2822 127.597)" fill="#FA7B53"/>
<rect x="94.1875" y="179.495" width="10.9653" height="23.1641" rx="5.48264" fill="#C6C6C6"/>
<path fill-rule="evenodd" clip-rule="evenodd" d="M100.7 204.427C100.7 204.418 100.708 204.41 100.717 204.41C122.49 204.284 136.082 198.491 143.051 193.863C145.574 192.188 145.588 188.724 143.439 186.59C141.291 184.456 137.726 184.389 135.094 185.886C129.27 189.198 117.817 193.589 99.0926 193.444C99.0822 193.444 99.0734 193.452 99.0734 193.462C99.0733 193.473 99.0645 193.481 99.0542 193.481C81.2387 193.382 70.2555 189.142 64.5928 185.922C61.9607 184.425 58.396 184.492 56.2474 186.625C54.0989 188.759 54.1108 192.222 56.6332 193.897C63.7829 198.645 77.9044 204.621 100.683 204.444C100.692 204.444 100.7 204.436 100.7 204.427Z" fill="#C6C6C6"/>
</g>
<path d="M291.781 103.749H286.328V105.764H284.688V103.749H277.594V101.749H291.781V103.749ZM281.578 92.3737C283.266 95.7409 285.531 97.5534 288.703 97.9284V93.1862H290.328V99.9519C286.078 99.9362 282.398 98.28 280.047 93.4987L281.578 92.3737ZM291.266 118.075H289.688V114.184C288.648 114.489 287.648 115.966 287.391 118.7L285.828 117.981C286.102 115.309 287.117 113.505 288.508 112.747C287.117 111.997 286.102 110.223 285.828 107.559L287.391 106.856C287.648 109.552 288.656 111.012 289.688 111.325V107.466H291.266V118.075ZM283.266 106.278H284.859V111.762H286.719V113.731H284.859V119.247H283.266V106.278ZM280.656 107.716H282.25V117.669H277.562V115.684H280.656V107.716ZM280.812 140.257H279.188V127.241H280.812V132.741H283.594V134.726H280.812V140.257ZM284.656 127.679C285.047 130.921 286.656 132.53 288.234 132.71V128.366H289.828V132.741H291.609V134.726H289.828V139.116H288.234V134.772C286.656 134.937 285.047 136.554 284.656 139.788L283.109 139.069C283.438 136.522 284.492 134.687 285.961 133.726C284.492 132.78 283.438 130.952 283.109 128.413L284.656 127.679ZM291.781 153.286H277.562V151.396H284.703V150.021H278.25V148.192H291.547V150.021H286.297V151.396H291.781V153.286ZM280.781 141.396H290.141V146.692H288.531V143.396H282.453C282.477 144.771 282.555 145.989 282.797 147.364L281.172 147.505C280.844 145.771 280.789 144.255 280.781 142.38V141.396ZM290.594 166.409H289.328C287.617 166.402 285.602 166.433 282.531 165.769L282.734 163.816C283.812 164.05 284.773 164.198 285.641 164.292L285.172 156.034L286.875 155.753L287.156 164.409C287.828 164.448 288.438 164.448 289 164.456V156.222H290.594V166.409ZM279.203 154.737H280.828V159.378H284.266V161.362H280.828V167.706H279.203V154.737ZM285.203 180.079H283.609V170.017H290.594V179.97H288.984V171.986H285.203V180.079ZM279.297 168.486H280.938V181.501H279.297V168.486Z" fill="#464646"/>
<path d="M251.5 79V195" stroke="#626262" stroke-width="3" stroke-linecap="round" stroke-dasharray="8 8"/>
<mask id="path-23-inside-2_1212_12005" fill="white">
<path fill-rule="evenodd" clip-rule="evenodd" d="M89.5 62H239.01C239.272 68.6718 244.764 74 251.5 74C258.236 74 263.728 68.6718 263.99 62H289.5C306.069 62 319.5 75.4315 319.5 92V182C319.5 198.569 306.069 212 289.5 212H263.911C263.17 205.804 257.896 201 251.5 201C245.104 201 239.83 205.804 239.089 212H89.5C72.9315 212 59.5 198.569 59.5 182V92C59.5 75.4315 72.9315 62 89.5 62Z"/>
</mask>
<path d="M239.01 62L242.007 61.8821L241.894 59H239.01V62ZM263.99 62V59H261.106L260.993 61.8821L263.99 62ZM263.911 212L260.932 212.356L261.248 215H263.911V212ZM239.089 212V215H241.752L242.068 212.356L239.089 212ZM239.01 59H89.5V65H239.01V59ZM251.5 71C246.381 71 242.207 66.9505 242.007 61.8821L236.012 62.1179C236.338 70.393 243.147 77 251.5 77V71ZM260.993 61.8821C260.793 66.9505 256.619 71 251.5 71V77C259.853 77 266.662 70.393 266.988 62.1179L260.993 61.8821ZM289.5 59H263.99V65H289.5V59ZM322.5 92C322.5 73.7746 307.725 59 289.5 59V65C304.412 65 316.5 77.0883 316.5 92H322.5ZM322.5 182V92H316.5V182H322.5ZM289.5 215C307.725 215 322.5 200.225 322.5 182H316.5C316.5 196.912 304.412 209 289.5 209V215ZM263.911 215H289.5V209H263.911V215ZM251.5 204C256.359 204 260.369 207.65 260.932 212.356L266.89 211.644C265.97 203.957 259.433 198 251.5 198V204ZM242.068 212.356C242.631 207.65 246.641 204 251.5 204V198C243.567 198 237.03 203.957 236.11 211.644L242.068 212.356ZM89.5 215H239.089V209H89.5V215ZM56.5 182C56.5 200.225 71.2746 215 89.5 215V209C74.5883 209 62.5 196.912 62.5 182H56.5ZM56.5 92V182H62.5V92H56.5ZM89.5 59C71.2746 59 56.5 73.7746 56.5 92H62.5C62.5 77.0883 74.5883 65 89.5 65V59Z" fill="#626262" mask="url(#path-23-inside-2_1212_12005)"/>
</g>
<defs>
<clipPath id="clip0_1212_12005">
<rect x="59" y="62" width="260" height="150" rx="30" fill="white"/>
</clipPath>
</defs>
</svg>
