<svg width="24" height="24" viewBox="0 0 24 24" fill="none" xmlns="http://www.w3.org/2000/svg">
<path fill-rule="evenodd" clip-rule="evenodd" d="M7.00977 5C7.00977 4.44772 7.45748 4 8.00977 4H21.0098C21.5621 4 22.0098 4.44772 22.0098 5C22.0098 5.55228 21.5621 6 21.0098 6H8.00977C7.45748 6 7.00977 5.55228 7.00977 5Z" fill="#464646"/>
<path fill-rule="evenodd" clip-rule="evenodd" d="M7.00977 12C7.00977 11.4477 7.45748 11 8.00977 11H21.0098C21.5621 11 22.0098 11.4477 22.0098 12C22.0098 12.5523 21.5621 13 21.0098 13H8.00977C7.45748 13 7.00977 12.5523 7.00977 12Z" fill="#464646"/>
<path fill-rule="evenodd" clip-rule="evenodd" d="M7.00977 19C7.00977 18.4477 7.45748 18 8.00977 18H21.0098C21.5621 18 22.0098 18.4477 22.0098 19C22.0098 19.5523 21.5621 20 21.0098 20H8.00977C7.45748 20 7.00977 19.5523 7.00977 19Z" fill="#464646"/>
<path fill-rule="evenodd" clip-rule="evenodd" d="M2 5C2 4.44772 2.44772 4 3 4H3.01C3.56228 4 4.01 4.44772 4.01 5C4.01 5.55228 3.56228 6 3.01 6H3C2.44772 6 2 5.55228 2 5Z" fill="#464646"/>
<path fill-rule="evenodd" clip-rule="evenodd" d="M2 12C2 11.4477 2.44772 11 3 11H3.01C3.56228 11 4.01 11.4477 4.01 12C4.01 12.5523 3.56228 13 3.01 13H3C2.44772 13 2 12.5523 2 12Z" fill="#464646"/>
<path fill-rule="evenodd" clip-rule="evenodd" d="M2 19C2 18.4477 2.44772 18 3 18H3.01C3.56228 18 4.01 18.4477 4.01 19C4.01 19.5523 3.56228 20 3.01 20H3C2.44772 20 2 19.5523 2 19Z" fill="#464646"/>
</svg>
