<svg width="146" height="127" viewBox="0 0 146 127" fill="none" xmlns="http://www.w3.org/2000/svg">
<g opacity="0.7">
<path d="M128 75C128 102.614 105.614 125 78 125C50.3858 125 28 102.614 28 75C28 47.3858 50.3858 25 78 25C105.614 25 128 47.3858 128 75Z" fill="#E9E9E9"/>
<path fill-rule="evenodd" clip-rule="evenodd" d="M77.9999 26.8227C51.3923 26.8227 29.8226 48.3924 29.8226 75C29.8226 101.608 51.3923 123.177 77.9999 123.177C104.608 123.177 126.177 101.608 126.177 75C126.177 48.3924 104.608 26.8227 77.9999 26.8227ZM26.1772 75C26.1772 46.3791 49.379 23.1773 77.9999 23.1773C106.621 23.1773 129.823 46.3791 129.823 75C129.823 103.621 106.621 126.823 77.9999 126.823C49.379 126.823 26.1772 103.621 26.1772 75Z" fill="#C6C6C6"/>
<path fill-rule="evenodd" clip-rule="evenodd" d="M71.5272 89.2917C70.413 88.9203 69.8109 87.716 70.1823 86.6019C71.1611 83.6654 74.1576 81.5595 77.4152 80.2174C80.8008 78.8224 85.0328 78.0091 89.363 78.0091C93.1502 78.0091 96.0484 78.7929 98.2461 80.0884C100.454 81.3901 101.818 83.1279 102.657 84.8045C103.182 85.8549 102.756 87.1322 101.706 87.6574C100.655 88.1826 99.3779 87.7569 98.8527 86.7064C98.324 85.649 97.4856 84.5769 96.0865 83.7521C94.6769 82.9212 92.5627 82.262 89.363 82.262C85.5246 82.262 81.851 82.9895 79.0353 84.1496C76.0914 85.3625 74.5905 86.826 74.2169 87.9468C73.8455 89.0609 72.6413 89.663 71.5272 89.2917Z" fill="#909090"/>
<path d="M54.8917 81.1286C50.2582 77.5868 56.569 71.3462 62.761 69.414C63.4669 69.1937 64.1586 69.7225 64.1271 70.4613C63.8521 76.9167 59.248 84.4585 54.8917 81.1286Z" fill="#C6C6C6"/>
<path d="M81.0854 63.542C81.0854 65.1988 79.7423 66.542 78.0854 66.542C76.4286 66.542 75.0854 65.1988 75.0854 63.542C75.0854 61.8851 76.4286 60.542 78.0854 60.542C79.7423 60.542 81.0854 61.8851 81.0854 63.542Z" fill="#909090"/>
<path d="M97.9255 63.542C97.9255 65.1988 96.5824 66.542 94.9255 66.542C93.2687 66.542 91.9255 65.1988 91.9255 63.542C91.9255 61.8851 93.2687 60.542 94.9255 60.542C96.5824 60.542 97.9255 61.8851 97.9255 63.542Z" fill="#909090"/>
</g>
<path d="M122.633 9.04459V31.1847M130.922 6.02548V39.2357M138.75 9.04459V27.6624M112.503 2V21.6242M15.3411 36.7197V81M4.75 34.2038V65.9045M24.5507 18.1019V52.8217" stroke="#E9E9E9" stroke-width="4" stroke-linecap="round" stroke-linejoin="round"/>
</svg>
