<svg width="142" height="48" viewBox="0 0 142 48" fill="none" xmlns="http://www.w3.org/2000/svg">
<g id="owori">
<g id="owori_2">
<path d="M15.216 10.176C25.552 10.176 30.72 16.304 30.72 28.56C30.72 41.168 25.552 47.472 15.216 47.472C5.072 47.472 0 41.168 0 28.56C0 16.304 5.072 10.176 15.216 10.176ZM15.216 17.088C9.968 17.088 7.344 20.912 7.344 28.56C7.344 36.56 9.968 40.56 15.216 40.56C20.688 40.56 23.424 36.56 23.424 28.56C23.424 20.912 20.688 17.088 15.216 17.088Z" fill="#212121"/>
<path d="M57.2779 45.888C56.3499 42.784 55.5499 39.424 54.8779 35.808C54.2059 32.16 53.6459 28.24 53.1979 24.048C51.9499 32.496 50.5419 39.712 48.9739 45.696C48.6219 46.752 47.9179 47.28 46.8619 47.28H43.5499C42.5259 47.28 41.7899 46.816 41.3419 45.888C39.1339 40.192 37.3739 34.544 36.0619 28.944C34.7499 23.344 33.9019 17.744 33.5179 12.144C33.4859 11.504 33.5659 11.04 33.7579 10.752C33.9499 10.464 34.2859 10.32 34.7659 10.32H38.7979C40.1099 10.32 40.8459 11.008 41.0059 12.384C41.4859 17.44 42.0779 21.968 42.7819 25.968C43.4859 29.968 44.2859 33.216 45.1819 35.712V35.664C45.2139 35.728 45.2459 35.728 45.2779 35.664V35.712C46.1739 31.584 46.9899 27.584 47.7259 23.712C48.4939 19.808 49.2139 16.016 49.8859 12.336C50.0139 10.992 50.7339 10.32 52.0459 10.32H54.1099C55.4219 10.32 56.1739 10.992 56.3659 12.336C56.9419 15.888 57.6299 19.696 58.4299 23.76C59.2299 27.824 60.1099 31.808 61.0699 35.712V35.664C61.1019 35.728 61.1339 35.728 61.1659 35.664V35.712C62.0299 33.216 62.7979 29.968 63.4699 25.968C64.1739 21.968 64.7499 17.44 65.1979 12.384C65.2939 11.008 66.0459 10.32 67.4539 10.32H71.1979C71.6779 10.32 72.0299 10.496 72.2539 10.848C72.5099 11.2 72.6539 11.632 72.6859 12.144C72.2379 17.68 71.3739 23.264 70.0939 28.896C68.8139 34.528 67.0699 40.128 64.8619 45.696C64.4139 46.752 63.6619 47.28 62.6059 47.28H59.3419C58.2859 47.28 57.5979 46.816 57.2779 45.888ZM53.1499 23.856C53.1499 23.952 53.1659 23.984 53.1979 23.952L53.1499 23.856Z" fill="#212121"/>
<path d="M92.091 10.176C102.427 10.176 107.595 16.304 107.595 28.56C107.595 41.168 102.427 47.472 92.091 47.472C81.947 47.472 76.875 41.168 76.875 28.56C76.875 16.304 81.947 10.176 92.091 10.176ZM92.091 17.088C86.843 17.088 84.219 20.912 84.219 28.56C84.219 36.56 86.843 40.56 92.091 40.56C97.563 40.56 100.299 36.56 100.299 28.56C100.299 20.912 97.563 17.088 92.091 17.088Z" fill="#212121"/>
<path d="M128.621 16.272C128.621 17.392 128.125 17.952 127.133 17.952C125.501 18.016 124.077 18.272 122.861 18.72C121.645 19.168 120.749 19.664 120.173 20.208V45.36C120.173 46.608 119.549 47.232 118.301 47.232H114.413C113.197 47.232 112.589 46.544 112.589 45.168V12.336C112.589 10.992 113.213 10.32 114.461 10.32H118.301C119.549 10.32 120.173 10.928 120.173 12.144V13.152C120.781 12.416 121.645 11.824 122.765 11.376C123.917 10.896 125.325 10.592 126.989 10.464C128.077 10.4 128.621 10.832 128.621 11.76V16.272Z" fill="#212121"/>
<path d="M141.279 45.024C141.279 46.496 140.463 47.232 138.831 47.232H135.903C134.367 47.232 133.599 46.512 133.599 45.072V12.624C133.599 11.024 134.415 10.224 136.047 10.224H138.831C140.463 10.224 141.279 11.04 141.279 12.672V45.024ZM141.279 5.52C141.279 6.992 140.383 7.728 138.591 7.728H135.903C134.367 7.728 133.599 7.008 133.599 5.568V2.352C133.599 0.784 134.415 0 136.047 0H138.687C140.415 0 141.279 0.8 141.279 2.4V5.52Z" fill="#212121"/>
</g>
<circle id="Ellipse 92" cx="17.1396" cy="19" r="4" fill="#212121"/>
<circle id="Ellipse 93" cx="94.1396" cy="19" r="4" fill="#212121"/>
</g>
</svg>
