<svg width="25" height="24" viewBox="0 0 25 24" fill="none" xmlns="http://www.w3.org/2000/svg">
<g clip-path="url(#clip0_160_3650)">
<ellipse cx="11.5234" cy="11.111" rx="10.582" ry="10.582" fill="#FA7B53" fill-opacity="0.89"/>
<path d="M15.898 15.5779V17.8648C15.898 18.1681 15.7776 18.4589 15.5631 18.6734C15.3487 18.8878 15.0578 19.0083 14.7546 19.0083H6.95753C6.82492 19.0083 6.69774 19.061 6.60397 19.1547L4.17362 21.5851C3.85864 21.9001 3.32007 21.677 3.32007 21.2315V11.0041C3.32007 10.7009 3.44054 10.41 3.65498 10.1956C3.86942 9.98117 4.16026 9.8607 4.46352 9.8607H6.75042M11.3242 12.1476H19.1213C19.2539 12.1476 19.3811 12.2003 19.4748 12.294L21.9052 14.7244C22.2202 15.0394 22.7587 14.8163 22.7587 14.3708V4.14345C22.7587 3.84019 22.6383 3.54935 22.4238 3.33491C22.2094 3.12047 21.9185 3 21.6153 3H11.3242C11.021 3 10.7301 3.12047 10.5157 3.33491C10.3012 3.54935 10.1808 3.84019 10.1808 4.14345V11.0041C10.1808 11.3074 10.3012 11.5982 10.5157 11.8127C10.7301 12.0271 11.021 12.1476 11.3242 12.1476Z" stroke="#212121" stroke-width="2" stroke-linecap="round" stroke-linejoin="round"/>
</g>
<defs>
<clipPath id="clip0_160_3650">
<rect width="24" height="24" fill="white" transform="translate(0.320068)"/>
</clipPath>
</defs>
</svg>
