<svg width="24" height="24" viewBox="0 0 24 24" fill="none" xmlns="http://www.w3.org/2000/svg">
<circle cx="12.333" cy="12" r="4" fill="white"/>
<path d="M12.3332 18.6666C8.65127 18.6666 5.6665 15.6818 5.6665 11.9999C5.6665 8.31802 8.65127 5.33325 12.3332 5.33325C16.015 5.33325 18.9998 8.31802 18.9998 11.9999C18.9998 15.6818 16.015 18.6666 12.3332 18.6666ZM12.3332 11.0571L10.919 9.6429C10.6586 9.38255 10.2365 9.38255 9.97615 9.6429C9.7158 9.90324 9.7158 10.3254 9.97615 10.5857L11.3904 11.9999L9.97615 13.4141C9.7158 13.6745 9.7158 14.0966 9.97615 14.3569C10.2365 14.6173 10.6586 14.6173 10.919 14.3569L12.3332 12.9427L13.7437 14.3533C14.0061 14.6156 14.4315 14.6156 14.6938 14.3533C14.9533 14.0938 14.9565 13.6741 14.7011 13.4106L13.3333 11.9999L14.7011 10.5892C14.9565 10.3258 14.9533 9.90603 14.6938 9.64654C14.4315 9.38418 14.0061 9.38418 13.7437 9.64654L12.3332 11.0571Z" fill="#626262"/>
</svg>
