<svg width="23" height="22" viewBox="0 0 23 22" fill="none" xmlns="http://www.w3.org/2000/svg">
<circle cx="11.5" cy="11" r="11" fill="#FA7B53"/>
<path d="M11.5176 15.1172C9.75977 15.1172 8.51172 14.1738 8.45898 12.7852H9.77148C9.81836 13.5293 10.5566 14.0039 11.5059 14.0039C12.5312 14.0039 13.2754 13.4473 13.2754 12.6211C13.2754 11.7832 12.5781 11.1855 11.3652 11.1797H10.6387V10.125H11.3652C12.332 10.1309 13.0059 9.5918 13.0059 8.77734C13.0059 8.00391 12.4258 7.47656 11.5293 7.47656C10.6797 7.47656 9.91797 7.95117 9.88867 8.71875H8.64648C8.68164 7.33594 9.95898 6.39844 11.541 6.39844C13.2109 6.39844 14.2598 7.45312 14.248 8.70703C14.2598 9.67383 13.6621 10.3652 12.748 10.5938V10.6523C13.9082 10.8164 14.582 11.5957 14.5762 12.668C14.582 14.0801 13.2754 15.1172 11.5176 15.1172Z" fill="white"/>
</svg>
