<svg width="24" height="24" viewBox="0 0 24 24" fill="none" xmlns="http://www.w3.org/2000/svg">
<path d="M15.578 15.5779V17.8648C15.578 18.1681 15.4575 18.4589 15.2431 18.6734C15.0286 18.8878 14.7378 19.0083 14.4345 19.0083H6.63746C6.50485 19.0083 6.37767 19.061 6.28391 19.1547L3.85355 21.5851C3.53857 21.9001 3 21.677 3 21.2315V11.0041C3 10.7009 3.12047 10.41 3.33491 10.1956C3.54935 9.98117 3.84019 9.8607 4.14345 9.8607H6.43035M11.0042 12.1476H18.8012C18.9338 12.1476 19.061 12.2003 19.1548 12.294L21.5851 14.7244C21.9001 15.0394 22.4387 14.8163 22.4387 14.3708V4.14345C22.4387 3.84019 22.3182 3.54935 22.1038 3.33491C21.8893 3.12047 21.5985 3 21.2952 3H11.0042C10.7009 3 10.4101 3.12047 10.1956 3.33491C9.98118 3.54935 9.86071 3.84019 9.86071 4.14345V11.0041C9.86071 11.3074 9.98118 11.5982 10.1956 11.8127C10.4101 12.0271 10.7009 12.1476 11.0042 12.1476Z" stroke="#C6C6C6" stroke-width="2" stroke-linecap="round" stroke-linejoin="round"/>
</svg>
