<svg width="24" height="24" viewBox="0 0 24 24" fill="none" xmlns="http://www.w3.org/2000/svg">
<path d="M17 6H21C21.5523 6 22 6.44772 22 7C22 7.55228 21.5523 8 21 8H20V21C20 21.5523 19.5523 22 19 22H5C4.44772 22 4 21.5523 4 21V8H3C2.44772 8 2 7.55228 2 7C2 6.44772 2.44772 6 3 6H7V3C7 2.44772 7.44772 2 8 2H16C16.5523 2 17 2.44772 17 3V6ZM18 8H6V20H18V8ZM9 12C9 11.4477 9.44772 11 10 11C10.5523 11 11 11.4477 11 12V16C11 16.5523 10.5523 17 10 17C9.44772 17 9 16.5523 9 16V12ZM13 12C13 11.4477 13.4477 11 14 11C14.5523 11 15 11.4477 15 12V16C15 16.5523 14.5523 17 14 17C13.4477 17 13 16.5523 13 16V12ZM9 4V6H15V4H9Z" fill="white"/>
</svg>
