<svg width="24" height="25" viewBox="0 0 24 25" fill="none" xmlns="http://www.w3.org/2000/svg">
<circle cx="10" cy="11" r="10" fill="#FA7B53" fill-opacity="0.89"/>
<path d="M3 10.9673C3 10.0415 3.42742 9.16756 4.15818 8.59919L10.1582 3.93253C11.2415 3.08994 12.7585 3.08994 13.8418 3.93253L19.8418 8.5992C20.5726 9.16756 21 10.0415 21 10.9673V20.5C21 21.0304 20.7893 21.5391 20.4142 21.9142C20.0391 22.2893 19.5304 22.5 19 22.5H5C4.46957 22.5 3.96086 22.2893 3.58579 21.9142C3.21071 21.5391 3 21.0304 3 20.5V10.9673Z" stroke="#212121" stroke-width="2" stroke-linecap="round" stroke-linejoin="round"/>
<path d="M9 22.5V14.5C9 13.3954 9.89543 12.5 11 12.5H13C14.1046 12.5 15 13.3954 15 14.5V22.5" stroke="#212121" stroke-width="2" stroke-linecap="round" stroke-linejoin="round"/>
</svg>
