<svg width="24" height="24" viewBox="0 0 24 24" fill="none" xmlns="http://www.w3.org/2000/svg">
<g id="Component/Icon/Setting">
<path id="Vector" d="M9.79058 2.88341C9.92349 2.48821 10.2239 2.14916 10.6369 2.09206C11.534 1.96802 12.4508 1.96492 13.3613 2.0897C13.7747 2.14635 14.0753 2.48582 14.2081 2.8814C14.5075 3.77323 15.1209 4.56367 15.9997 5.07103C16.8784 5.57837 17.8697 5.71439 18.7917 5.52778C19.2007 5.445 19.645 5.53557 19.9008 5.86528C20.4641 6.59144 20.9198 7.38692 21.2609 8.22587C21.418 8.61211 21.2745 9.04175 20.9987 9.35445C20.3769 10.0594 19.9997 10.9853 19.9997 11.9992C19.9997 13.0134 20.3771 13.9394 20.9991 14.6444C21.2754 14.9576 21.419 15.3882 21.2608 15.7748C21.0908 16.1904 20.8907 16.5995 20.6599 16.9992C20.4291 17.399 20.1749 17.7768 19.9 18.1319C19.6443 18.4621 19.1996 18.5531 18.7902 18.4704C17.8686 18.2842 16.878 18.4204 15.9997 18.9274C15.1216 19.4344 14.5084 20.2241 14.2087 21.1151C14.0758 21.5103 13.7755 21.8493 13.3625 21.9064C12.4654 22.0304 11.5486 22.0335 10.6381 21.9087C10.2247 21.8521 9.92405 21.5126 9.79123 21.117C9.49183 20.2252 8.87841 19.4347 7.99967 18.9274C7.12094 18.4201 6.12971 18.284 5.20769 18.4707C4.79867 18.5535 4.35433 18.4629 4.09854 18.1332C3.53522 17.407 3.07954 16.6115 2.73841 15.7726C2.58136 15.3863 2.72481 14.9567 3.00062 14.644C3.62242 13.939 3.99968 13.0131 3.99968 11.9992C3.99968 10.9851 3.62225 10.0591 3.00019 9.35399C2.72388 9.04081 2.58035 8.61025 2.7385 8.22369C2.90856 7.80805 3.10862 7.39898 3.33942 6.99923C3.57022 6.59947 3.82445 6.22168 4.09938 5.86659C4.35506 5.53634 4.79971 5.44536 5.2091 5.52806C6.13072 5.71425 7.12138 5.57811 7.99967 5.07103C8.87777 4.56405 9.49093 3.77442 9.79058 2.88341ZM11.9997 14.9992C13.6565 14.9992 14.9997 13.6561 14.9997 11.9992C14.9997 10.3424 13.6565 8.99923 11.9997 8.99923C10.3428 8.99923 8.99967 10.3424 8.99967 11.9992C8.99967 13.6561 10.3428 14.9992 11.9997 14.9992Z" fill="black"/>
</g>
</svg>
