<svg width="24" height="24" viewBox="0 0 24 24" fill="none" xmlns="http://www.w3.org/2000/svg">
<circle cx="10" cy="10.5" r="10" fill="#FA7B53" fill-opacity="0.89"/>
<path d="M3 10.4673C3 9.54148 3.42742 8.66756 4.15818 8.09919L10.1582 3.43253C11.2415 2.58994 12.7585 2.58994 13.8418 3.43253L19.8418 8.0992C20.5726 8.66756 21 9.54148 21 10.4673V20C21 20.5304 20.7893 21.0391 20.4142 21.4142C20.0391 21.7893 19.5304 22 19 22H5C4.46957 22 3.96086 21.7893 3.58579 21.4142C3.21071 21.0391 3 20.5304 3 20V10.4673Z" stroke="#212121" stroke-width="2" stroke-linecap="round" stroke-linejoin="round"/>
<path d="M9 22V14C9 12.8954 9.89543 12 11 12H13C14.1046 12 15 12.8954 15 14V22" stroke="#212121" stroke-width="2" stroke-linecap="round" stroke-linejoin="round"/>
</svg>
