<svg width="24" height="24" viewBox="0 0 24 24" fill="none" xmlns="http://www.w3.org/2000/svg">
<g id="Component/Icon/Close">
<path id="Vector" d="M16.364 10.9498L21.6066 5.70711C21.9971 5.31659 22.6303 5.31659 23.0208 5.70711C23.4113 6.09763 23.4113 6.73079 23.0208 7.12131L17.7782 12.364L23.0208 17.6066C23.4113 17.9971 23.4113 18.6303 23.0208 19.0208C22.6303 19.4113 21.9971 19.4113 21.6066 19.0208L16.364 13.7782L11.1213 19.0208C10.7308 19.4113 10.0976 19.4113 9.70711 19.0208C9.31659 18.6303 9.31659 17.9971 9.70711 17.6066L14.9498 12.364L9.70711 7.12131C9.31658 6.73079 9.31658 6.09763 9.7071 5.7071C10.0976 5.31658 10.7308 5.31658 11.1213 5.70711L16.364 10.9498Z" fill="#C6C6C6"/>
</g>
</svg>
