<svg width="25" height="24" viewBox="0 0 25 24" fill="none" xmlns="http://www.w3.org/2000/svg">
<path d="M22.5 19C22.5 19.5523 22.0523 20 21.5 20H3.5C2.94772 20 2.5 19.5523 2.5 19C2.5 18.4477 2.94772 18 3.5 18V10.0314C3.5 5.04348 7.52944 1 12.5 1C17.4706 1 21.5 5.04348 21.5 10.0314V18C22.0523 18 22.5 18.4477 22.5 19ZM5.5 18H19.5V10.0314C19.5 6.14806 16.366 3 12.5 3C8.63401 3 5.5 6.14806 5.5 10.0314V18ZM10.1967 21.9737C9.98145 21.4651 10.4477 21 11 21H14C14.5523 21 15.0186 21.4651 14.8033 21.9737C14.4236 22.8707 13.5353 23.5 12.5 23.5C11.4647 23.5 10.5764 22.8707 10.1967 21.9737Z" fill="#212121"/>
</svg>
