<svg width="24" height="24" viewBox="0 0 24 24" fill="none" xmlns="http://www.w3.org/2000/svg">
<path d="M22 19C22 19.5523 21.5523 20 21 20H3C2.44772 20 2 19.5523 2 19C2 18.4477 2.44772 18 3 18V10.0314C3 5.04348 7.02944 1 12 1C16.9706 1 21 5.04348 21 10.0314V18C21.5523 18 22 18.4477 22 19ZM5 18H19V10.0314C19 6.14806 15.866 3 12 3C8.13401 3 5 6.14806 5 10.0314V18ZM9.69673 21.9737C9.48145 21.4651 9.94772 21 10.5 21H13.5C14.0523 21 14.5186 21.4651 14.3033 21.9737C13.9236 22.8707 13.0353 23.5 12 23.5C10.9647 23.5 10.0764 22.8707 9.69673 21.9737Z" fill="#212121"/>
<circle cx="18.5" cy="5.5" r="3.5" fill="#FF3F3F"/>
</svg>
