<svg width="19" height="19" viewBox="0 0 19 19" fill="none" xmlns="http://www.w3.org/2000/svg">
<g id="Component/Icon/Alarm/1.5">
<path id="Vector" d="M9.49933 17.0003C5.77144 17.0003 2.74936 13.9783 2.74936 10.2503C2.74936 6.52241 5.77144 3.50033 9.49933 3.50033C13.2273 3.50033 16.2493 6.52241 16.2493 10.2503C16.2493 13.9783 13.2273 17.0003 9.49933 17.0003ZM9.49933 15.5003C12.3988 15.5003 14.7493 13.1498 14.7493 10.2503C14.7493 7.35083 12.3988 5.00033 9.49933 5.00033C6.59986 5.00033 4.24936 7.35083 4.24936 10.2503C4.24936 13.1498 6.59986 15.5003 9.49933 15.5003ZM10.2493 10.2503H11.7493C12.1635 10.2503 12.4993 10.5861 12.4993 11.0003C12.4993 11.4145 12.1635 11.7503 11.7493 11.7503H9.74933C9.19704 11.7503 8.74933 11.3026 8.74933 10.7503V7.25033C8.74933 6.83612 9.08511 6.50033 9.49933 6.50033C9.91354 6.50033 10.2493 6.83612 10.2493 7.25033V10.2503ZM2.3399 5.74253C2.04701 5.44963 2.04701 4.97476 2.3399 4.68186L3.9309 3.09088C4.22379 2.79798 4.69866 2.79798 4.99155 3.09088C5.28445 3.38377 5.28445 3.85864 4.99155 4.15153L3.40057 5.74253C3.10767 6.03542 2.6328 6.03542 2.3399 5.74253ZM14.0072 3.09086C14.3001 2.79797 14.775 2.79798 15.0679 3.09088L16.6588 4.68187C16.9517 4.97476 16.9517 5.44963 16.6588 5.74252C16.3659 6.03542 15.8911 6.03542 15.5982 5.74253L14.0072 4.15156C13.7143 3.85866 13.7143 3.38376 14.0072 3.09086Z" fill="#626262"/>
</g>
</svg>
