<svg width="375" height="246" viewBox="0 0 375 246" fill="none" xmlns="http://www.w3.org/2000/svg">
<path d="M188 246C94.6745 246 24.8242 222.416 0 205.181V0H375V205.181C352.596 222.416 281.326 246 188 246Z" fill="#FFEEB2"/>
<g opacity="0.72">
<mask id="mask0_393_12874" style="mask-type:alpha" maskUnits="userSpaceOnUse" x="0" y="0" width="375" height="246">
<path d="M188 246C94.6745 246 24.8242 222.416 0 205.181V0H375V205.181C352.596 222.416 281.326 246 188 246Z" fill="#FFEEB2"/>
</mask>
<g mask="url(#mask0_393_12874)">
<ellipse cx="258.666" cy="60.6379" rx="130.166" ry="106.365" fill="#FFEF9A"/>
<ellipse cx="294.897" cy="228.258" rx="138.897" ry="135.258" fill="#FFE37E" fill-opacity="0.68"/>
<path d="M187.523 118.023C187.523 189.831 191.659 251.843 127.076 251.843C62.4939 251.843 -46.3506 189.831 -46.3506 118.023C-46.3506 46.2144 6.00385 -11.9978 70.5863 -11.9978C135.169 -11.9978 187.523 46.2144 187.523 118.023Z" fill="#FFE895"/>
</g>
</g>
</svg>
