<svg width="24" height="24" viewBox="0 0 24 24" fill="none" xmlns="http://www.w3.org/2000/svg">
<g id="Component/Icon/History">
<path id="Vector" d="M12 2C17.5228 2 22 6.47715 22 12C22 17.5228 17.5228 22 12 22C6.81417 22 2.55032 18.0526 2.04924 12.9986C1.99475 12.449 2.44772 12 3 12C3.55228 12 3.99344 12.45 4.06165 12.998C4.55286 16.9453 7.91969 20 12 20C16.4183 20 20 16.4183 20 12C20 7.58172 16.4183 4 12 4C9.25022 4 6.82447 5.38734 5.38451 7.50024L6.99996 7.50009C7.55225 7.50004 8 7.94775 8 8.50005C8 9.05231 7.55231 9.5 7.00005 9.5H3C2.44772 9.5 2 9.05228 2 8.5V4.49998C2 3.94771 2.44771 3.5 2.99998 3.5C3.55227 3.5 3.99998 3.94773 3.99996 4.50002L3.99989 5.99918C5.82434 3.57075 8.72873 2 12 2ZM12 7C12.5523 7 13 7.44774 13 8.00004L12.9998 11.1708C12.9998 11.436 13.1051 11.6904 13.2926 11.8779L15.5356 14.1213C15.9261 14.5118 15.9261 15.1449 15.5356 15.5354C15.145 15.926 14.5118 15.9259 14.1213 15.5353L11.2926 12.7059C11.1051 12.5184 10.9998 12.264 10.9998 11.9988L11 7.99996C11 7.44769 11.4477 7 12 7Z" fill="#C6C6C6"/>
</g>
</svg>
