<svg width="123" height="74" viewBox="0 0 123 74" fill="none" xmlns="http://www.w3.org/2000/svg">
<path d="M14.3442 11.3276V12.7939H1.03467V11.3276H6.771V8.15332H2.50098V1.12793H12.8135V8.15332H8.54346V11.3276H14.3442ZM4.25732 6.75146H11.041V2.56201H4.25732V6.75146Z" fill="#F2F2F2"/>
<path d="M19.2749 1.06348C20.5881 1.06348 21.6758 1.79663 22.3284 3.07764H25.7363V0H27.5088V14.5825H25.7363V9.07178H22.4573C21.8208 10.522 20.6768 11.3599 19.2749 11.3599C17.0835 11.3599 15.5286 9.36987 15.5366 6.20361C15.5286 3.06152 17.0835 1.06348 19.2749 1.06348ZM17.2607 6.20361C17.2527 8.44336 18.0745 9.74048 19.2749 9.74854C20.4834 9.74048 21.2971 8.44336 21.3052 6.20361C21.2971 3.97998 20.4834 2.6748 19.2749 2.6748C18.0745 2.6748 17.2527 3.97998 17.2607 6.20361ZM22.8359 4.54395C22.9407 5.05151 22.9971 5.60742 22.9971 6.20361C22.9971 6.70312 22.9568 7.17847 22.8762 7.62158H25.7363V4.54395H22.8359Z" fill="#F2F2F2"/>
<path d="M32.0688 1.17627V3.12598H35.8555V1.17627H37.644V7.83105H34.8726V10.1675C36.073 10.1111 37.2654 10.0144 38.3853 9.86133L38.5142 11.1826C35.4607 11.7063 32.1333 11.7305 29.6357 11.7466L29.3779 10.2642C30.4817 10.2561 31.7546 10.2561 33.084 10.2239V7.83105H30.2964V1.17627H32.0688ZM32.0688 6.39697H35.8555V4.49561H32.0688V6.39697ZM39.2231 14.5664V0H41.0117V5.91357H43.1226V7.41211H41.0117V14.5664H39.2231Z" fill="#F2F2F2"/>
<path d="M57.125 11.3276V12.7939H43.8154V11.3276H46.8931V7.64575C45.7329 6.97705 45.032 5.92969 45.04 4.64062C45.032 2.32031 47.304 0.789551 50.438 0.789551C53.5881 0.789551 55.8762 2.32031 55.8682 4.64062C55.8762 5.91357 55.1914 6.93677 54.0635 7.60547V11.3276H57.125ZM46.7964 4.64062C46.7883 6.1311 48.2627 7.08179 50.438 7.07373C52.6052 7.08179 54.1118 6.1311 54.1118 4.64062C54.1118 3.12598 52.6052 2.19946 50.438 2.20752C48.2627 2.19946 46.7883 3.12598 46.7964 4.64062ZM48.6655 11.3276H52.2427V8.29028C51.6868 8.41113 51.0825 8.47559 50.438 8.47559C49.8096 8.47559 49.2134 8.41113 48.6655 8.29834V11.3276Z" fill="#F2F2F2"/>
<path d="M75.2847 8.20166V9.68408H69.4839V14.5664H67.7114V9.68408H61.9751V8.20166H75.2847ZM63.377 3.78662C63.3689 1.78857 65.4958 0.523682 68.5977 0.515625C71.6995 0.523682 73.8425 1.78857 73.8506 3.78662C73.8425 5.7605 71.6995 7.01733 68.5977 7.00928C65.4958 7.01733 63.3689 5.7605 63.377 3.78662ZM65.2139 3.78662C65.2058 4.92261 66.5432 5.59131 68.5977 5.59131C70.6602 5.59131 71.9976 4.92261 71.9976 3.78662C71.9976 2.64258 70.6602 1.96582 68.5977 1.96582C66.5432 1.96582 65.2058 2.64258 65.2139 3.78662Z" fill="#F2F2F2"/>
<path d="M88.3848 0V14.5825H86.6123V0H88.3848ZM77.041 2.72314V1.27295H83.9053V6.73535H78.894V9.66797C81.1902 9.65186 83.1641 9.53101 85.436 9.15234L85.5972 10.6187C83.1238 11.0457 80.9485 11.1423 78.3301 11.1343H77.0571V5.31738H82.0845V2.72314H77.041Z" fill="#F2F2F2"/>
<path d="M105.835 0V5.68799H107.995V7.18652H105.835V14.5342H104.047V0H105.835ZM94.3467 10.5542C97.8916 8.78174 99.8091 6.31641 100.164 2.99707H95.1362V1.51465H101.984C101.976 5.79272 100.204 9.55518 95.3618 11.9399L94.3467 10.5542Z" fill="#F2F2F2"/>
<path d="M120.772 0.563965V1.98193H116.559C116.784 3.22266 118.565 4.3667 121.336 4.64062L120.676 6.04248C118.049 5.7605 116.1 4.70508 115.31 3.22266C114.521 4.69702 112.587 5.7605 109.96 6.04248L109.332 4.64062C112.063 4.3667 113.836 3.2146 114.069 1.98193H109.896V0.563965H120.772ZM108.688 8.60449V7.17041H114.424V5.15625H116.196V7.17041H121.965V8.60449H108.688ZM110.154 11.2148V9.78076H120.337V14.5664H118.549V11.2148H110.154Z" fill="#F2F2F2"/>
<path d="M18.9443 22.632C31.3443 22.5987 37.5443 28.5654 37.5443 40.532C37.511 50.8987 32.461 56.6154 22.3943 57.682V64.432H35.5943C36.8943 64.432 37.5443 65.1654 37.5443 66.632V70.032C37.5443 71.2654 36.9277 71.8987 35.6943 71.932H2.74434C1.24434 71.932 0.494336 71.1654 0.494336 69.632V66.632C0.494336 65.1654 1.29434 64.432 2.89434 64.432H14.4443V57.582C5.14434 56.182 0.477669 50.4987 0.444336 40.532C0.477669 28.5987 6.64434 22.632 18.9443 22.632ZM18.8943 51.082C26.0277 51.082 29.6943 47.5654 29.8943 40.532C29.8943 33.0987 26.2443 29.4154 18.9443 29.482C11.811 29.482 8.211 33.1654 8.14434 40.532C8.211 47.6654 11.7943 51.182 18.8943 51.082Z" fill="white"/>
<path d="M45.1696 58.532C43.8362 58.532 43.1696 57.9654 43.1696 56.832V54.882C43.1696 53.5487 43.7862 52.882 45.0196 52.882H52.4696V50.482H45.2196C43.7862 50.482 43.0696 49.7654 43.0696 48.332V45.732C43.0696 44.2987 43.7696 43.582 45.1696 43.582H67.9696C69.1696 43.6154 69.7696 44.2654 69.7696 45.532V48.332C69.7696 49.7654 69.1196 50.482 67.8196 50.482H60.3196V52.882H77.9196C79.3196 52.882 80.0196 53.482 80.0196 54.682V63.532C80.0196 64.732 79.3029 65.332 77.8696 65.332H50.7696V67.332H78.0196C79.3529 67.332 80.0196 67.8987 80.0196 69.032V70.832C80.0196 72.2654 79.4029 72.982 78.1696 72.982H45.4696C43.9362 72.982 43.1696 72.3987 43.1696 71.232V62.332C43.1696 61.132 43.8862 60.532 45.3196 60.532H72.3196V58.532H45.1696ZM55.8696 22.582C62.8362 22.582 66.9362 24.9154 68.1696 29.582H71.9196V24.882C71.9196 23.7154 72.5696 23.132 73.8696 23.132H78.0196C79.3529 23.132 80.0196 23.7154 80.0196 24.882V49.532C80.0196 50.732 79.3362 51.332 77.9696 51.332H73.9696C72.6029 51.332 71.9196 50.6987 71.9196 49.432V37.082H67.6696C66.0362 40.5154 62.0862 42.232 55.8196 42.232C47.5196 42.1654 43.3029 38.9987 43.1696 32.732C43.2362 25.9987 47.4696 22.6154 55.8696 22.582ZM55.9696 35.432C59.4029 35.432 61.1196 34.532 61.1196 32.732C61.1196 30.532 59.4362 29.432 56.0696 29.432C52.6696 29.432 50.9696 30.4987 50.9696 32.632C50.9696 34.532 52.6362 35.4654 55.9696 35.432Z" fill="white"/>
<path d="M122.555 71.232C122.555 72.432 121.955 73.032 120.755 73.032H116.455C115.222 73.032 114.605 72.382 114.605 71.082V24.882C114.605 23.7154 115.222 23.132 116.455 23.132H120.605C121.905 23.132 122.555 23.7487 122.555 24.982V71.232ZM98.5053 23.132C101.105 23.132 103.239 23.632 104.905 24.632C106.572 25.632 107.889 27.1487 108.855 29.182C109.822 31.182 110.489 33.6987 110.855 36.732C111.222 39.732 111.405 43.2487 111.405 47.282C111.405 51.582 111.205 55.3487 110.805 58.582C110.405 61.782 109.722 64.4654 108.755 66.632C107.789 68.7654 106.472 70.3654 104.805 71.432C103.139 72.4987 101.039 73.032 98.5053 73.032C95.9053 73.032 93.7553 72.482 92.0554 71.382C90.3554 70.3154 89.0053 68.7154 88.0053 66.582C87.0387 64.4154 86.3553 61.732 85.9553 58.532C85.5553 55.2987 85.3553 51.5487 85.3553 47.282C85.3553 43.282 85.572 39.782 86.0053 36.782C86.472 33.7487 87.2053 31.232 88.2053 29.232C89.2387 27.1987 90.5887 25.682 92.2553 24.682C93.9553 23.6487 96.0387 23.132 98.5053 23.132ZM103.905 47.282C103.905 44.4487 103.839 41.9654 103.705 39.832C103.572 37.6987 103.305 35.932 102.905 34.532C102.505 33.0987 101.955 32.032 101.255 31.332C100.555 30.632 99.6553 30.282 98.5554 30.282C97.422 30.282 96.5053 30.632 95.8054 31.332C95.1054 32.032 94.5554 33.0987 94.1553 34.532C93.7887 35.932 93.5387 37.6987 93.4053 39.832C93.272 41.9654 93.2053 44.4487 93.2053 47.282C93.2053 53.5154 93.572 58.1987 94.3054 61.332C95.0387 64.432 96.4554 65.982 98.5554 65.982C99.622 65.982 100.505 65.5987 101.205 64.832C101.905 64.032 102.455 62.8487 102.855 61.282C103.255 59.7154 103.522 57.7654 103.655 55.432C103.822 53.0987 103.905 50.382 103.905 47.282Z" fill="white"/>
</svg>
