<svg width="128" height="128" viewBox="0 0 128 128" fill="none" xmlns="http://www.w3.org/2000/svg">
<circle cx="64" cy="64" r="64" fill="#C2DFFF"/>
<mask id="mask0_398_10512" style="mask-type:alpha" maskUnits="userSpaceOnUse" x="0" y="0" width="128" height="128">
<circle cx="64" cy="64" r="64" fill="#A6CFFF"/>
</mask>
<g mask="url(#mask0_398_10512)">
<path d="M19 16.8757C23.1321 18.9354 29.3961 4.73446 34.3981 7.22778C39.51 9.77585 32.0485 23.3799 38.2465 26.4695C42.3786 28.5291 48.6426 14.3282 53.6446 16.8215C58.7565 19.3696 51.295 32.9736 57.4931 36.0632C61.6252 38.1228 67.8892 23.9218 72.8912 26.4152C78.0031 28.9632 70.5416 42.5673 76.7396 45.6568" stroke="#429AFF" stroke-width="8" stroke-linecap="round"/>
<path d="M95.311 100.699C99.0608 98.3706 92.1576 88.5745 96.6969 85.756C101.336 82.8755 107.152 93.3464 112.777 89.8539C116.527 87.5256 109.624 77.7294 114.163 74.9109C118.802 72.0305 124.618 82.5013 130.243 79.0088C133.993 76.6805 127.089 66.8843 131.629 64.0658C136.268 61.1854 142.084 71.6562 147.709 68.1637" stroke="#FF9466" stroke-width="8" stroke-linecap="round"/>
<path d="M-4.45617 95.129C-0.143323 94.1901 -3.36914 82.6484 1.8517 81.5119C7.1872 80.3504 9.16316 92.1642 15.6324 90.756C19.9452 89.8171 16.7194 78.2754 21.9402 77.1389C27.2757 75.9775 29.2517 87.7913 35.7209 86.383C40.0338 85.4442 36.808 73.9024 42.0288 72.7659C47.3643 71.6045 49.3402 83.4183 55.8095 82.01" stroke="white" stroke-width="8" stroke-linecap="round"/>
</g>
<path d="M102.044 67.0218C102.044 88.0206 85.0206 105.044 64.0218 105.044C43.0229 105.044 26 88.0206 26 67.0218C26 46.0229 43.0229 29 64.0218 29C85.0206 29 102.044 46.0229 102.044 67.0218Z" fill="#FFDA56"/>
<path fill-rule="evenodd" clip-rule="evenodd" d="M64.0217 30.3858C43.7884 30.3858 27.386 46.7882 27.386 67.0216C27.386 87.2549 43.7884 103.657 64.0217 103.657C84.2551 103.657 100.657 87.2549 100.657 67.0216C100.657 46.7882 84.2551 30.3858 64.0217 30.3858ZM24.614 67.0216C24.614 45.2572 42.2574 27.6138 64.0217 27.6138C85.7861 27.6138 103.43 45.2572 103.43 67.0216C103.43 88.7859 85.7861 106.429 64.0217 106.429C42.2574 106.429 24.614 88.7859 24.614 67.0216Z" fill="#FFCD1E"/>
<path d="M50.7174 58.1064C50.7174 59.3822 49.6831 60.4164 48.4073 60.4164C47.1315 60.4164 46.0973 59.3822 46.0973 58.1064C46.0973 56.8306 47.1315 55.7964 48.4073 55.7964C49.6831 55.7964 50.7174 56.8306 50.7174 58.1064Z" fill="#212121"/>
<path d="M63.5231 58.1064C63.5231 59.3822 62.4889 60.4164 61.2131 60.4164C59.9373 60.4164 58.9031 59.3822 58.9031 58.1064C58.9031 56.8306 59.9373 55.7964 61.2131 55.7964C62.4889 55.7964 63.5231 56.8306 63.5231 58.1064Z" fill="#212121"/>
<path fill-rule="evenodd" clip-rule="evenodd" d="M64.9561 64.8964C64.125 64.5694 63.1863 64.9781 62.8594 65.8092C62.4866 66.7566 62.2078 68.3298 62.9066 69.8006C63.681 71.4306 65.3791 72.3945 67.8608 72.5071C68.753 72.5476 69.509 71.8572 69.5495 70.9651C69.59 70.0729 68.8996 69.3169 68.0075 69.2764C66.2948 69.1987 65.929 68.626 65.8277 68.4127C65.6506 68.0401 65.6839 67.4633 65.8689 66.9931C66.1958 66.1621 65.7872 65.2233 64.9561 64.8964Z" fill="#212121"/>
<path fill-rule="evenodd" clip-rule="evenodd" d="M46.3283 66.3071C47.2213 66.3071 47.9453 67.0311 47.9453 67.9242C47.9453 70.1846 50.4768 73.2372 54.8754 73.2372C56.9591 73.2372 58.9464 72.5548 60.5123 71.66C61.2911 71.215 61.9384 70.7326 62.4183 70.2888C62.923 69.8219 63.1553 69.4784 63.2209 69.334C63.5905 68.521 64.5491 68.1615 65.3621 68.5311C66.1751 68.9006 66.5346 69.8593 66.1651 70.6723C65.8457 71.375 65.2647 72.0613 64.6144 72.6629C63.9392 73.2874 63.0898 73.9119 62.1169 74.4679C60.1792 75.5752 57.6427 76.4713 54.8754 76.4713C49.1098 76.4713 44.7112 72.3628 44.7112 67.9242C44.7112 67.0311 45.4352 66.3071 46.3283 66.3071Z" fill="#212121"/>
</svg>
