<svg width="100" height="100" viewBox="0 0 100 100" fill="none" xmlns="http://www.w3.org/2000/svg">
<circle cx="50" cy="50" r="50" fill="#C2DFFF"/>
<mask id="mask0_393_12814" style="mask-type:alpha" maskUnits="userSpaceOnUse" x="0" y="0" width="100" height="100">
<circle cx="50" cy="50" r="50" fill="#A6CFFF"/>
</mask>
<g mask="url(#mask0_393_12814)">
<path d="M14.8438 13.184C18.0719 14.7931 22.9657 3.69861 26.8735 5.64652C30.8672 7.6372 25.0379 18.2654 29.8801 20.6791C33.1083 22.2882 38.0021 11.1937 41.9099 13.1416C45.9035 15.1323 40.0742 25.7605 44.9165 28.1742C48.1447 29.7833 53.0384 18.6888 56.9462 20.6367C60.9399 22.6274 55.1106 33.2555 59.9528 35.6692" stroke="#429AFF" stroke-width="6.25" stroke-linecap="round"/>
<path d="M74.4617 78.6709C77.3912 76.8519 71.9982 69.1987 75.5444 66.9967C79.1686 64.7463 83.7127 72.9267 88.1069 70.1982C91.0365 68.3792 85.6434 60.7259 89.1896 58.524C92.8138 56.2736 97.3579 64.454 101.752 61.7255C104.682 59.9064 99.2886 52.2532 102.835 50.0512C106.459 47.8009 111.003 55.9812 115.397 53.2527" stroke="#FF9466" stroke-width="6.25" stroke-linecap="round"/>
<path d="M-3.4814 74.3192C-0.111989 73.5857 -2.63216 64.5687 1.44662 63.6808C5.61498 62.7734 7.1587 72.003 12.2128 70.9028C15.5822 70.1693 13.062 61.1523 17.1408 60.2644C21.3092 59.357 22.8529 68.5866 27.907 67.4864C31.2764 66.7529 28.7562 57.7359 32.835 56.848C37.0033 55.9406 38.5471 65.1702 43.6011 64.07" stroke="white" stroke-width="6.25" stroke-linecap="round"/>
</g>
<path d="M79.7215 52.3608C79.7215 68.7661 66.4224 82.0653 50.017 82.0653C33.6117 82.0653 20.3125 68.7661 20.3125 52.3608C20.3125 35.9554 33.6117 22.6562 50.017 22.6562C66.4224 22.6562 79.7215 35.9554 79.7215 52.3608Z" fill="#FFDA56"/>
<path fill-rule="evenodd" clip-rule="evenodd" d="M50.0171 23.7391C34.2098 23.7391 21.3954 36.5534 21.3954 52.3608C21.3954 68.1681 34.2098 80.9824 50.0171 80.9824C65.8244 80.9824 78.6388 68.1681 78.6388 52.3608C78.6388 36.5534 65.8244 23.7391 50.0171 23.7391ZM19.2297 52.3608C19.2297 35.3574 33.0137 21.5734 50.0171 21.5734C67.0204 21.5734 80.8044 35.3574 80.8044 52.3608C80.8044 69.3641 67.0204 83.1481 50.0171 83.1481C33.0137 83.1481 19.2297 69.3641 19.2297 52.3608Z" fill="#FFCD1E"/>
<path d="M39.6229 45.3956C39.6229 46.3923 38.8149 47.2003 37.8181 47.2003C36.8214 47.2003 36.0134 46.3923 36.0134 45.3956C36.0134 44.3989 36.8214 43.5909 37.8181 43.5909C38.8149 43.5909 39.6229 44.3989 39.6229 45.3956Z" fill="#212121"/>
<path d="M49.6275 45.3956C49.6275 46.3923 48.8195 47.2003 47.8228 47.2003C46.8261 47.2003 46.0181 46.3923 46.0181 45.3956C46.0181 44.3989 46.8261 43.5909 47.8228 43.5909C48.8195 43.5909 49.6275 44.3989 49.6275 45.3956Z" fill="#212121"/>
<path fill-rule="evenodd" clip-rule="evenodd" d="M50.747 50.7002C50.0977 50.4448 49.3643 50.7641 49.1089 51.4133C48.8177 52.1535 48.5998 53.3826 49.1458 54.5316C49.7509 55.8051 51.0775 56.5581 53.0163 56.6461C53.7133 56.6777 54.304 56.1384 54.3356 55.4414C54.3672 54.7444 53.8278 54.1537 53.1309 54.1221C51.7928 54.0614 51.5071 53.614 51.4279 53.4473C51.2896 53.1563 51.3156 52.7056 51.4601 52.3383C51.7155 51.689 51.3962 50.9556 50.747 50.7002Z" fill="#212121"/>
<path fill-rule="evenodd" clip-rule="evenodd" d="M36.194 51.8024C36.8917 51.8024 37.4573 52.368 37.4573 53.0657C37.4573 54.8316 39.435 57.2165 42.8714 57.2165C44.4993 57.2165 46.0519 56.6834 47.2753 55.9843C47.8837 55.6366 48.3894 55.2598 48.7643 54.913C49.1586 54.5483 49.3401 54.2799 49.3914 54.1671C49.6801 53.532 50.429 53.2511 51.0642 53.5398C51.6993 53.8286 51.9802 54.5775 51.6915 55.2127C51.4419 55.7616 50.988 56.2978 50.48 56.7678C49.9525 57.2557 49.2889 57.7436 48.5288 58.178C47.015 59.043 45.0334 59.7431 42.8714 59.7431C38.3671 59.7431 34.9307 56.5334 34.9307 53.0657C34.9307 52.368 35.4963 51.8024 36.194 51.8024Z" fill="#212121"/>
</svg>
