<svg width="14" height="14" viewBox="0 0 14 14" fill="none" xmlns="http://www.w3.org/2000/svg">
<path d="M7.33366 13.8333C3.65176 13.8333 0.666992 10.8485 0.666992 7.16667C0.666992 3.48477 3.65176 0.5 7.33366 0.5C11.0155 0.5 14.0003 3.48477 14.0003 7.16667C14.0003 10.8485 11.0155 13.8333 7.33366 13.8333ZM7.33366 6.22387L5.91944 4.80964C5.65909 4.5493 5.23698 4.54929 4.97664 4.80964C4.71629 5.06999 4.71629 5.4921 4.97664 5.75245L6.39086 7.16667L4.97664 8.58086C4.71629 8.84121 4.71629 9.26332 4.97664 9.52367C5.23699 9.78402 5.65909 9.78402 5.91944 9.52367L7.33366 8.10947L8.74422 9.52003C9.00658 9.78239 9.43194 9.78239 9.69429 9.52003C9.95379 9.26053 9.95703 8.84081 9.70156 8.57734L8.33374 7.16667L9.70157 5.75597C9.95703 5.4925 9.95379 5.07278 9.6943 4.81328C9.43194 4.55093 9.00658 4.55093 8.74422 4.81328L7.33366 6.22387Z" fill="#C6C6C6"/>
</svg>
