<svg width="249" height="219" viewBox="0 0 249 219" fill="none" xmlns="http://www.w3.org/2000/svg">
<path d="M29.1212 95.8735C19.7085 106.792 25.459 128.514 29.121 138.102C35.6311 162.174 42.7677 199.042 55.9511 205.896C72.4303 214.464 103.56 210.318 120.039 209.706C136.518 209.094 154.852 228.106 179.265 213.418C203.679 198.73 193.912 190.122 203.067 163.806C212.223 137.49 236.974 83.3721 191.199 78.476C164.689 75.6406 152.409 37.7331 115.789 33.4491C79.1684 29.1651 67.4638 56.6063 62.5811 70.0703C57.6984 83.5344 41.8502 81.1086 29.1212 95.8735Z" fill="#FFE9E2"/>
<path d="M161.046 42.0229C161.046 64.127 143.127 82.0458 121.023 82.0458C98.9189 82.0458 81 64.127 81 42.0229C81 19.9189 98.9189 2 121.023 2C143.127 2 161.046 19.9189 161.046 42.0229Z" fill="#FFDA56"/>
<path fill-rule="evenodd" clip-rule="evenodd" d="M121.023 3.45895C99.7246 3.45895 82.4589 20.7246 82.4589 42.0229C82.4589 63.3212 99.7246 80.5868 121.023 80.5868C142.321 80.5868 159.587 63.3212 159.587 42.0229C159.587 20.7246 142.321 3.45895 121.023 3.45895ZM79.541 42.0229C79.541 19.1131 98.1131 0.541016 121.023 0.541016C143.933 0.541016 162.505 19.1131 162.505 42.0229C162.505 64.9327 143.933 83.5048 121.023 83.5048C98.1131 83.5048 79.541 64.9327 79.541 42.0229Z" fill="#FFCD1E"/>
<path d="M107.018 32.6386C107.018 33.9816 105.929 35.0703 104.586 35.0703C103.243 35.0703 102.155 33.9816 102.155 32.6386C102.155 31.2957 103.243 30.207 104.586 30.207C105.929 30.207 107.018 31.2957 107.018 32.6386Z" fill="#212121"/>
<path d="M120.498 32.6386C120.498 33.9816 119.409 35.0703 118.066 35.0703C116.723 35.0703 115.635 33.9816 115.635 32.6386C115.635 31.2957 116.723 30.207 118.066 30.207C119.409 30.207 120.498 31.2957 120.498 32.6386Z" fill="#212121"/>
<path fill-rule="evenodd" clip-rule="evenodd" d="M122.006 39.7856C121.131 39.4415 120.143 39.8717 119.799 40.7465C119.407 41.7437 119.113 43.3998 119.849 44.948C120.664 46.6638 122.452 47.6784 125.064 47.7969C126.003 47.8395 126.799 47.1128 126.841 46.1737C126.884 45.2346 126.157 44.4388 125.218 44.3962C123.415 44.3143 123.03 43.7115 122.924 43.487C122.737 43.0948 122.772 42.4876 122.967 41.9927C123.311 41.1179 122.881 40.1297 122.006 39.7856Z" fill="#212121"/>
<path fill-rule="evenodd" clip-rule="evenodd" d="M102.398 41.2705C103.338 41.2705 104.101 42.0326 104.101 42.9726C104.101 45.352 106.765 48.5653 111.395 48.5653C113.589 48.5653 115.681 47.847 117.329 46.9051C118.149 46.4367 118.83 45.9289 119.335 45.4617C119.867 44.9703 120.111 44.6087 120.18 44.4567C120.569 43.6009 121.578 43.2225 122.434 43.6115C123.29 44.0005 123.668 45.0096 123.279 45.8654C122.943 46.6051 122.331 47.3276 121.647 47.9608C120.936 48.6182 120.042 49.2756 119.018 49.8608C116.978 51.0263 114.308 51.9696 111.395 51.9696C105.326 51.9696 100.696 47.6449 100.696 42.9726C100.696 42.0326 101.458 41.2705 102.398 41.2705Z" fill="#212121"/>
<path d="M247 160C247 182.091 229.091 200 207 200C184.909 200 167 182.091 167 160C167 137.909 184.909 120 207 120C229.091 120 247 137.909 247 160Z" fill="#85C4FF"/>
<path fill-rule="evenodd" clip-rule="evenodd" d="M207 121.458C185.714 121.458 168.458 138.714 168.458 160C168.458 181.286 185.714 198.542 207 198.542C228.286 198.542 245.542 181.286 245.542 160C245.542 138.714 228.286 121.458 207 121.458ZM165.542 160C165.542 137.103 184.103 118.542 207 118.542C229.897 118.542 248.458 137.103 248.458 160C248.458 182.897 229.897 201.458 207 201.458C184.103 201.458 165.542 182.897 165.542 160Z" fill="#41A4FF"/>
<path fill-rule="evenodd" clip-rule="evenodd" d="M201.822 171.434C200.93 171.137 200.449 170.173 200.746 169.282C201.529 166.933 203.926 165.248 206.532 164.174C209.241 163.058 212.626 162.408 216.09 162.408C219.12 162.408 221.439 163.035 223.197 164.071C224.964 165.112 226.055 166.503 226.725 167.844C227.145 168.684 226.805 169.706 225.965 170.126C225.124 170.546 224.102 170.206 223.682 169.366C223.259 168.52 222.588 167.662 221.469 167.002C220.342 166.337 218.65 165.81 216.09 165.81C213.02 165.81 210.081 166.392 207.828 167.32C205.473 168.29 204.272 169.461 203.974 170.358C203.676 171.249 202.713 171.731 201.822 171.434Z" fill="#212121"/>
<path d="M188.513 164.903C184.807 162.069 189.855 157.077 194.809 155.531C195.374 155.355 195.927 155.778 195.902 156.369C195.682 161.533 191.998 167.566 188.513 164.903Z" fill="#1C91FE"/>
<path d="M209.529 150.864C209.529 152.206 208.441 153.294 207.099 153.294C205.757 153.294 204.668 152.206 204.668 150.864C204.668 149.522 205.757 148.434 207.099 148.434C208.441 148.434 209.529 149.522 209.529 150.864Z" fill="#212121"/>
<path d="M223.001 150.864C223.001 152.206 221.913 153.294 220.571 153.294C219.229 153.294 218.141 152.206 218.141 150.864C218.141 149.522 219.229 148.434 220.571 148.434C221.913 148.434 223.001 149.522 223.001 150.864Z" fill="#212121"/>
<path d="M82 159.6C82 181.691 64.0914 199.6 42 199.6C19.9086 199.6 2 181.691 2 159.6C2 137.508 19.9086 119.6 42 119.6C64.0914 119.6 82 137.508 82 159.6Z" fill="#BD76FF"/>
<path fill-rule="evenodd" clip-rule="evenodd" d="M42.0001 121.058C20.714 121.058 3.45825 138.314 3.45825 159.6C3.45825 180.886 20.714 198.142 42.0001 198.142C63.2862 198.142 80.542 180.886 80.542 159.6C80.542 138.314 63.2862 121.058 42.0001 121.058ZM0.541992 159.6C0.541992 136.703 19.1034 118.142 42.0001 118.142C64.8968 118.142 83.4583 136.703 83.4583 159.6C83.4583 182.496 64.8968 201.058 42.0001 201.058C19.1034 201.058 0.541992 182.496 0.541992 159.6Z" fill="#AD58FD"/>
<path fill-rule="evenodd" clip-rule="evenodd" d="M34.3218 166.26C34.3218 165.32 35.0834 164.559 36.0229 164.559H60.3251C61.2646 164.559 62.0263 165.32 62.0263 166.26C62.0263 167.199 61.2646 167.961 60.3251 167.961H36.0229C35.0834 167.961 34.3218 167.199 34.3218 166.26Z" fill="#212121"/>
<path d="M43.7999 151.921C43.7999 153.264 42.7118 154.352 41.3697 154.352C40.0275 154.352 38.9395 153.264 38.9395 151.921C38.9395 150.579 40.0275 149.491 41.3697 149.491C42.7118 149.491 43.7999 150.579 43.7999 151.921Z" fill="#212121"/>
<path d="M57.2716 151.921C57.2716 153.264 56.1835 154.352 54.8414 154.352C53.4992 154.352 52.4111 153.264 52.4111 151.921C52.4111 150.579 53.4992 149.491 54.8414 149.491C56.1835 149.491 57.2716 150.579 57.2716 151.921Z" fill="#212121"/>
</svg>
