<svg width="22" height="22" viewBox="0 0 22 22" fill="none" xmlns="http://www.w3.org/2000/svg">
<circle cx="11" cy="11" r="10.25" fill="white" stroke="#C6C6C6" stroke-width="1.5"/>
<path d="M11.0176 15.1172C9.25977 15.1172 8.01172 14.1738 7.95898 12.7852H9.27148C9.31836 13.5293 10.0566 14.0039 11.0059 14.0039C12.0312 14.0039 12.7754 13.4473 12.7754 12.6211C12.7754 11.7832 12.0781 11.1855 10.8652 11.1797H10.1387V10.125H10.8652C11.832 10.1309 12.5059 9.5918 12.5059 8.77734C12.5059 8.00391 11.9258 7.47656 11.0293 7.47656C10.1797 7.47656 9.41797 7.95117 9.38867 8.71875H8.14648C8.18164 7.33594 9.45898 6.39844 11.041 6.39844C12.7109 6.39844 13.7598 7.45312 13.748 8.70703C13.7598 9.67383 13.1621 10.3652 12.248 10.5938V10.6523C13.4082 10.8164 14.082 11.5957 14.0762 12.668C14.082 14.0801 12.7754 15.1172 11.0176 15.1172Z" fill="#C6C6C6"/>
</svg>
