<svg width="25" height="25" viewBox="0 0 25 25" fill="none" xmlns="http://www.w3.org/2000/svg">
<path d="M11.9027 11.417C11.7009 11.7052 11.2723 11.7003 11.0771 11.4075L10.8324 11.0404C10.6345 10.7435 10.1982 10.7435 10.0003 11.0404L8.85124 12.764C8.62972 13.0963 8.86792 13.5413 9.26727 13.5413H16.7477C17.1522 13.5413 17.3893 13.086 17.1573 12.7546L14.4717 8.91808C14.2727 8.63375 13.8516 8.63371 13.6525 8.91802L11.9027 11.417Z" fill="#C6C6C6"/>
<path d="M9.89863 9.37539C10.7633 9.37539 11.4643 8.67444 11.4643 7.80977C11.4643 6.9451 10.7633 6.24414 9.89863 6.24414C9.03396 6.24414 8.33301 6.9451 8.33301 7.80977C8.33301 8.67444 9.03396 9.37539 9.89863 9.37539Z" fill="#C6C6C6"/>
<path d="M19.7917 2.08301H6.25C4.99375 2.08301 3.125 2.9153 3.125 5.20801V19.7913C3.125 22.084 4.99375 22.9163 6.25 22.9163H20.875C21.4273 22.9163 21.875 22.4686 21.875 21.9163V21.833C21.875 21.2807 21.4273 20.833 20.875 20.833H6.2625C5.78125 20.8205 5.20833 20.6309 5.20833 19.7913C5.20833 18.9518 5.78125 18.7622 6.2625 18.7497H20.875C21.4273 18.7497 21.875 18.302 21.875 17.7497V4.16634C21.875 3.01738 20.9406 2.08301 19.7917 2.08301ZM19.7917 15.6663C19.7917 16.2186 19.344 16.6663 18.7917 16.6663H6.20833C5.65605 16.6663 5.20833 16.2186 5.20833 15.6663V5.20801C5.20833 4.36842 5.78125 4.17884 6.25 4.16634H18.7917C19.344 4.16634 19.7917 4.61406 19.7917 5.16634V15.6663Z" fill="#C6C6C6"/>
</svg>
