<svg width="105" height="104" viewBox="0 0 105 104" fill="none" xmlns="http://www.w3.org/2000/svg">
<g opacity="0.7">
<path d="M102.5 52C102.5 79.6142 80.1142 102 52.5 102C24.8858 102 2.5 79.6142 2.5 52C2.5 24.3858 24.8858 2 52.5 2C80.1142 2 102.5 24.3858 102.5 52Z" fill="#E9E9E9"/>
<path fill-rule="evenodd" clip-rule="evenodd" d="M52.4999 3.82267C25.8923 3.82267 4.32257 25.3924 4.32257 52C4.32257 78.6076 25.8923 100.177 52.4999 100.177C79.1075 100.177 100.677 78.6076 100.677 52C100.677 25.3924 79.1075 3.82267 52.4999 3.82267ZM0.677246 52C0.677246 23.3791 23.879 0.177338 52.4999 0.177338C81.1208 0.177338 104.323 23.3791 104.323 52C104.323 80.6209 81.1208 103.823 52.4999 103.823C23.879 103.823 0.677246 80.6209 0.677246 52Z" fill="#C6C6C6"/>
<path fill-rule="evenodd" clip-rule="evenodd" d="M36.2261 56.3235C36.2547 55.1699 37.198 54.2497 38.3519 54.2497H63.7111C64.8855 54.2497 65.8375 55.2017 65.8375 56.3761C65.8375 60.1043 65.0657 64.838 62.8163 68.72C60.5038 72.7109 56.5905 75.8179 50.6222 75.8179C44.5223 75.8179 40.7919 72.2625 38.7242 68.1542C36.7052 64.1426 36.1489 59.4395 36.2261 56.3235ZM40.533 58.5026C40.71 60.912 41.2921 63.7962 42.5231 66.2422C44.0865 69.3486 46.5628 71.565 50.6222 71.565C54.8135 71.565 57.4446 69.5078 59.1366 66.5878C60.5231 64.1948 61.2468 61.2434 61.4895 58.5026H40.533Z" fill="#909090"/>
<path d="M45.5819 43.2913C45.5819 44.969 44.2218 46.3291 42.5441 46.3291C40.8664 46.3291 39.5063 44.969 39.5063 43.2913C39.5063 41.6136 40.8664 40.2535 42.5441 40.2535C44.2218 40.2535 45.5819 41.6136 45.5819 43.2913Z" fill="#909090"/>
<path d="M62.422 43.2913C62.422 44.969 61.0619 46.3291 59.3842 46.3291C57.7065 46.3291 56.3464 44.969 56.3464 43.2913C56.3464 41.6136 57.7065 40.2535 59.3842 40.2535C61.0619 40.2535 62.422 41.6136 62.422 43.2913Z" fill="#909090"/>
</g>
</svg>
