<svg width="25" height="25" viewBox="0 0 25 25" fill="none" xmlns="http://www.w3.org/2000/svg">
<circle cx="10.4534" cy="10.5" r="10" fill="#FA7B53" fill-opacity="0.89"/>
<path d="M11.903 11.4174C11.7011 11.7057 11.2726 11.7008 11.0774 11.408L10.8326 11.0409C10.6347 10.744 10.1985 10.744 10.0006 11.0409L8.85149 12.7645C8.62997 13.0968 8.86816 13.5418 9.26751 13.5418H16.7479C17.1524 13.5418 17.3895 13.0865 17.1575 12.7551L14.472 8.91857C14.2729 8.63424 13.8519 8.6342 13.6528 8.91851L11.903 11.4174Z" fill="#212121"/>
<path d="M9.89888 9.3749C10.7635 9.3749 11.4645 8.67395 11.4645 7.80928C11.4645 6.94461 10.7635 6.24365 9.89888 6.24365C9.03421 6.24365 8.33325 6.94461 8.33325 7.80928C8.33325 8.67395 9.03421 9.3749 9.89888 9.3749Z" fill="#212121"/>
<path d="M19.7917 2.0835H6.25C4.99375 2.0835 3.125 2.91579 3.125 5.2085V19.7918C3.125 22.0845 4.99375 22.9168 6.25 22.9168H20.875C21.4273 22.9168 21.875 22.4691 21.875 21.9168V21.8335C21.875 21.2812 21.4273 20.8335 20.875 20.8335H6.2625C5.78125 20.821 5.20833 20.6314 5.20833 19.7918C5.20833 18.9522 5.78125 18.7627 6.2625 18.7502H20.875C21.4273 18.7502 21.875 18.3024 21.875 17.7502V4.16683C21.875 3.01787 20.9406 2.0835 19.7917 2.0835ZM19.7917 15.6668C19.7917 16.2191 19.344 16.6668 18.7917 16.6668H6.20833C5.65605 16.6668 5.20833 16.2191 5.20833 15.6668V5.2085C5.20833 4.36891 5.78125 4.17933 6.25 4.16683H18.7917C19.344 4.16683 19.7917 4.61454 19.7917 5.16683V15.6668Z" fill="#212121"/>
</svg>
